<svg width="83" height="66" viewBox="0 0 83 66" fill="none" xmlns="http://www.w3.org/2000/svg">
<path fill-rule="evenodd" clip-rule="evenodd" d="M79.5164 41.4094C79.1352 40.9756 78.7271 40.5661 78.2945 40.1835C78.0892 39.9937 77.4013 40.5682 77.6733 40.2194C78.7618 38.8979 79.5061 37.3278 79.8398 35.6491C80.0805 34.3494 79.9323 33.0077 79.4137 31.7918C78.9115 30.6458 78.1252 29.6466 77.1292 28.8885C75.8943 27.9517 74.4493 27.3302 72.9195 27.0778C70.9712 26.7946 68.9826 27.0227 67.1492 27.7395C65.907 28.1826 64.7718 28.8816 63.8174 29.7913C63.8638 28.1813 63.8209 26.5698 63.6891 24.9645C63.6429 24.2823 63.6069 23.6873 63.5967 23.2205C65.5849 23.6198 67.6223 23.7149 69.6391 23.5026C72.9811 22.9897 74.8139 20.8405 75.3837 18.3219C75.6082 17.3108 75.636 16.2659 75.4658 15.2443C75.3042 14.23 74.9561 13.2544 74.4391 12.3667C73.7791 11.1777 72.7563 10.2305 71.5198 9.66307C70.2833 9.09562 68.8977 8.93763 67.565 9.21209C66.8206 9.34032 66.0814 9.53011 65.3473 9.72503L64.146 10.0225C63.4324 5.1547 60.691 2.35917 57.544 1.37432C56.2919 0.98906 54.9708 0.881249 53.6728 1.05843C52.3747 1.23561 51.131 1.69351 50.0282 2.4002C47.3381 4.12369 45.49 7.35523 45.9623 11.8332C44.3031 10.63 42.3548 9.88676 40.3152 9.67885L39.9199 9.64808C38.3903 9.58988 36.8682 9.88844 35.4741 10.5201C34.8892 10.7675 34.3274 11.0661 33.7954 11.4126C32.854 12.0217 32.0489 12.8187 31.4305 13.7535C30.8121 14.6882 30.3938 15.7406 30.2017 16.8446C26.2744 16.106 22.9837 17.4191 20.8584 19.7017C19.8603 20.7778 19.1211 22.0672 18.6971 23.4719C18.267 24.8967 18.179 26.4027 18.4404 27.8678C19.041 31.1865 21.4796 34.4539 26.3617 36.3877C26.1273 37.8521 26.305 39.3528 26.8751 40.7221C27.6024 42.4031 28.7583 43.8639 30.2274 44.959C31.4544 45.8925 32.5633 46.0208 33.7646 46.1593C34.3482 46.205 34.9279 46.2906 35.4998 46.4157C35.6736 46.4574 35.845 46.5088 36.0131 46.5696C36.1374 46.6105 36.2444 46.6919 36.317 46.8007C36.3896 46.9095 36.4236 47.0394 36.4135 47.1698C36.3837 47.621 36.2349 48.0563 35.9823 48.4316C35.8425 48.6638 35.6827 48.8835 35.5049 49.0882C35.1895 49.4292 34.846 49.7431 34.4782 50.0268C31.9626 52.0427 27.101 53.4944 20.0472 51.2271C19.6108 51.0887 19.2002 50.9655 18.81 50.8629C13.9432 49.5601 9.97999 50.1089 6.91002 51.9555C3.84005 53.8021 1.69414 56.9259 0.451776 60.773C0.328566 61.1577 0.22075 61.5373 0.123209 61.9015C-0.0256689 62.4503 0.154012 62.7735 0.636582 62.9273C1.11915 63.0812 1.47341 62.676 2.04325 62.0605C3.5115 60.4601 7.28479 56.3412 11.3148 56.9926C14.6312 57.5312 17.3982 59.3265 20.2064 61.1577C23.5946 63.3633 27.0445 65.61 31.7162 65.9537C32.9825 66.0418 34.2542 66.0126 35.5151 65.8665C42.1274 65.1073 46.4243 61.0654 48.8885 58.7469L49.4995 58.1775C49.9917 59.6616 50.9517 60.9464 52.2357 61.8399C53.4078 62.6962 54.8006 63.1995 56.2497 63.2904C57.6988 63.3813 59.1437 63.056 60.4137 62.3529C61.3922 61.8231 62.2629 61.115 62.9806 60.2652C63.6846 59.4458 64.2092 58.4883 64.5207 57.4543C64.8008 56.5821 64.8612 55.6544 64.6964 54.7533C64.5317 53.8523 64.1468 53.0058 63.5761 52.2889C65.8812 51.1092 67.1698 49.0984 68.0733 47.6263C68.2632 47.3185 68.4429 47.0415 68.5867 46.8107C69.3293 47.8979 70.2269 48.8708 71.2511 49.6986C72.4497 50.6153 73.9319 51.0835 75.4402 51.022C76.9374 50.9559 78.3592 50.3469 79.4393 49.3088C79.9475 48.8147 80.3498 48.2225 80.6216 47.5682C80.8934 46.9139 81.0292 46.2111 81.0205 45.5027C81.0233 44.0028 80.4899 42.5512 79.5164 41.4094ZM46.604 12.4898C46.5424 12.4898 46.527 12.4898 46.5321 12.459C46.6862 12.4641 46.7888 12.459 46.5937 12.4898H46.604ZM31.326 18.286C31.4255 18.1938 31.4952 18.0742 31.5263 17.9423C31.5337 17.881 31.5337 17.819 31.5263 17.7577C31.5263 17.6551 31.5263 17.5525 31.5519 17.4397C31.6757 16.4692 32.0117 15.5379 32.536 14.7117C33.0604 13.8855 33.7602 13.1847 34.5859 12.659C34.8614 12.4851 35.1459 12.3259 35.4382 12.182L35.6794 12.064C36.9478 11.4129 38.3612 11.0951 39.7864 11.1407L40.0996 11.1715C42.089 11.3767 43.9768 12.1515 45.5362 13.4028C46.0496 13.7773 46.3473 14.0132 46.7734 13.9568H46.8042C47.1772 15.1993 47.9366 16.2907 48.9723 17.0728C50.008 17.855 51.2662 18.2871 52.5643 18.3065C53.6991 18.3604 54.8357 18.2463 55.9371 17.968C58.3654 17.3884 59.5307 15.8803 59.7772 14.2235C59.8868 13.4638 59.8254 12.6893 59.5975 11.9563C59.3719 11.2226 59 10.542 58.504 9.95583C57.9606 9.25786 57.2093 8.75055 56.3585 8.50714C55.5077 8.26373 54.6014 8.29684 53.7707 8.60169C53.6781 8.63502 53.6026 8.70371 53.5607 8.79269C53.5188 8.88167 53.514 8.98364 53.5474 9.07615C53.5807 9.16866 53.6495 9.24413 53.7386 9.28597C53.8276 9.32782 53.9297 9.33261 54.0223 9.29928C54.7119 9.04899 55.4633 9.0239 56.1682 9.22762C56.8731 9.43134 57.495 9.85334 57.9444 10.4329C58.3733 10.943 58.6946 11.5345 58.889 12.1717C59.0872 12.7979 59.1416 13.4606 59.0482 14.1107C58.8326 15.4905 57.8469 16.7523 55.7677 17.2447C54.737 17.5071 53.6731 17.616 52.6105 17.5679C51.3038 17.532 50.0501 17.0444 49.0631 16.1881C48.2777 15.4584 47.7122 14.5239 47.4305 13.49C47.5313 13.0581 47.5313 12.6088 47.4305 12.1769C46.8402 8.07334 48.4213 5.17008 50.7623 3.66716C51.6856 3.07897 52.726 2.69902 53.8113 2.55374C54.8965 2.40845 56.0004 2.50135 57.046 2.82596C59.7361 3.66718 62.0822 6.13956 62.6521 10.4893C62.6488 10.5303 62.6488 10.5714 62.6521 10.6124C62.6893 10.7989 62.7727 10.9732 62.8947 11.1192C63.0166 11.2653 63.1732 11.3785 63.3502 11.4485C63.6096 11.5501 63.891 11.582 64.1665 11.5408L64.3564 11.5049C64.8287 11.3972 65.2241 11.2998 65.6245 11.1972C66.3432 11.0125 67.0619 10.8279 67.7293 10.715C68.7655 10.5006 69.8432 10.6223 70.8053 11.0624C71.7675 11.5025 72.5639 12.238 73.0787 13.1617C73.5045 13.8887 73.7901 14.6891 73.9206 15.5213C74.0574 16.354 74.0347 17.2052 73.8538 18.0295C73.6283 19.0945 73.0694 20.0602 72.2582 20.7868C71.447 21.5135 70.4254 21.9634 69.3413 22.0715C67.4413 22.2583 65.5239 22.1598 63.6531 21.7792C63.4359 21.7357 63.2166 21.7032 62.996 21.6817C62.3417 21.3322 61.8057 20.7967 61.4559 20.1429C61.2598 19.8395 61.1269 19.4998 61.0649 19.144C61.0029 18.7882 61.0131 18.4236 61.095 18.0719C61.1769 17.7201 61.3288 17.3885 61.5416 17.0966C61.7544 16.8047 62.0238 16.5585 62.3338 16.3727C62.7183 16.1266 63.1503 15.9641 63.6018 15.8957C63.8228 15.8419 64.053 15.8389 64.2753 15.8869C64.4977 15.9349 64.7062 16.0326 64.8852 16.1727C64.9564 16.2209 65.0421 16.2428 65.1277 16.2347C65.2132 16.2265 65.2933 16.1889 65.354 16.1282C65.4148 16.0674 65.4525 15.9875 65.4606 15.902C65.4688 15.8165 65.4468 15.7308 65.3986 15.6597C65.1413 15.428 64.8326 15.2607 64.4979 15.1715C64.1632 15.0823 63.8121 15.0739 63.4735 15.1468C62.9256 15.2321 62.4013 15.4294 61.9333 15.7264C61.4209 16.0454 60.9972 16.4882 60.7012 17.0139C60.4562 17.4877 60.3219 18.0108 60.3086 18.5439C60.2952 19.077 60.4032 19.6062 60.6242 20.0916C60.6733 20.2213 60.7299 20.348 60.7937 20.4711C61.121 21.0893 61.5952 21.6177 62.1746 22.01C62.1355 22.0944 62.1095 22.1844 62.0976 22.2767C62.0161 23.2074 62.0281 24.1439 62.1336 25.0722C62.3095 27.0598 62.3232 29.0583 62.1746 31.048C62.0607 31.5787 62.1182 32.1319 62.3389 32.6279C62.0205 34.6942 61.3059 36.6798 60.2341 38.4754L60.2033 38.419C60.1468 38.3061 60.0852 38.1933 60.0185 38.0856L59.9106 37.906C59.7977 37.7214 59.6796 37.5418 59.5513 37.3931L59.3408 37.1161C59.2689 37.0238 59.1919 36.9315 59.1149 36.8443C59.0379 36.7571 58.8839 36.5827 58.7607 36.4544C58.6375 36.3262 58.5297 36.2236 58.4116 36.1159V36.0902H58.3859L58.273 35.9876L58.1601 35.8902C57.9804 35.7414 57.8007 35.5978 57.6107 35.4645L57.3233 35.2695C57.2296 35.2021 57.1319 35.1404 57.0306 35.0849C56.9177 35.013 56.7996 34.9464 56.6815 34.8848C56.5635 34.8233 56.4043 34.7412 56.2657 34.6796L55.9269 34.5309L55.47 34.3565L55.2287 34.2744H55.1414L54.9515 34.218L54.7872 34.177H54.705L54.3046 34.0846L54.1711 34.059L53.9298 34.018C53.7194 33.9872 53.5089 33.9615 53.2984 33.9461C53.2112 33.941 53.1238 33.941 53.0366 33.9461H52.6207H52.2665H52.1382L51.8147 33.9718H51.6145H51.5632C51.4821 33.9791 51.4016 33.9911 51.3219 34.0077L51.0601 34.0539C50.9266 34.0539 50.788 34.1103 50.6545 34.1462C50.5211 34.1821 50.3773 34.218 50.2387 34.259L49.8383 34.3924L49.4378 34.5463L49.1657 34.6591L48.8936 34.7925L48.6216 34.931L48.3495 35.0797C49.3762 31.4892 49.1144 28.0986 48.3084 26.0314C48.0861 25.418 47.7362 24.8585 47.2817 24.39C47.1017 24.1929 46.8777 24.041 46.628 23.9465C46.3782 23.852 46.1097 23.8177 45.8442 23.8463H45.7518C46.5578 21.9023 46.3781 20.3121 45.6697 19.1272C45.1834 18.3409 44.4813 17.7107 43.647 17.3114C42.8283 16.9131 41.9291 16.7077 41.0185 16.7113C39.2987 16.7113 37.6816 17.5166 37.1066 19.1785C37.0753 19.2717 37.0823 19.3735 37.1261 19.4615C37.1699 19.5496 37.2469 19.6166 37.3402 19.6479C37.4334 19.6792 37.5353 19.6721 37.6234 19.6284C37.7115 19.5846 37.7786 19.5077 37.8099 19.4145C38.2617 18.0911 39.5965 17.4602 41.0237 17.4499C41.8177 17.444 42.6026 17.6194 43.3184 17.9629C44.0266 18.2998 44.6221 18.8342 45.0331 19.5017C45.7672 20.7225 45.8083 22.487 44.4735 24.7491C44.376 24.8722 44.2836 25.0055 44.1912 25.1492C43.5802 26.1289 42.0555 26.7137 40.2587 26.8009C38.9056 26.8617 37.5538 26.656 36.2801 26.1956C36.0645 26.1186 35.854 26.0314 35.6486 25.9391L35.4074 25.8314C34.4275 25.3726 33.5535 24.7159 32.8405 23.9027C32.212 23.1224 31.752 22.2205 31.4896 21.2539C31.2272 20.2872 31.168 19.2767 31.3158 18.286H31.326ZM63.0884 31.4584H62.9755L63.15 31.4276C63.2014 31.4481 63.2219 31.4738 63.0884 31.4584ZM27.0342 35.1003C22.5936 33.3819 20.3912 30.5197 19.847 27.6215C19.6267 26.3839 19.7005 25.1118 20.0626 23.9079C20.4248 22.7213 21.0514 21.6322 21.8954 20.7225C23.8103 18.6707 26.8802 17.5371 30.5611 18.4604C30.4502 19.5094 30.5506 20.57 30.8566 21.5796C31.1625 22.5892 31.6678 23.5274 32.3425 24.3387C33.1954 25.3176 34.259 26.0909 35.4535 26.6008L35.6948 26.6983L36.0747 26.847C37.4396 27.3373 38.8866 27.5586 40.3357 27.4984C42.2301 27.4061 43.8831 26.7855 44.6994 25.7339C44.7588 25.6586 44.8136 25.5798 44.8637 25.498C44.9509 25.357 45.0469 25.2217 45.1512 25.0927C45.3491 24.8042 45.6474 24.5994 45.988 24.5183C46.1419 24.5061 46.2965 24.5304 46.4392 24.5892C46.582 24.6481 46.7088 24.7398 46.8094 24.8568C47.1826 25.2545 47.4678 25.7264 47.6462 26.2417C48.4675 28.3397 48.6729 31.9251 47.4049 35.6542C46.493 36.3335 45.6853 37.1422 45.0074 38.0548C44.9284 38.1571 44.8803 38.28 44.8688 38.4087C44.8688 38.5626 44.8688 38.6601 44.8124 38.6088C44.7559 38.5575 44.8124 38.5678 44.8124 38.5113C44.8112 38.3672 44.8009 38.2233 44.7816 38.0804C44.5521 35.8948 43.6964 33.8217 42.3173 32.1098C41.8702 31.5528 41.3525 31.0562 40.7772 30.6325C39.3218 29.5655 37.6048 28.9115 35.8078 28.7398H35.7205C35.6435 28.7398 35.5613 28.7398 35.4792 28.7398C33.5915 28.6198 31.7252 29.1946 30.2325 30.3555C29.6385 30.8289 29.1103 31.3791 28.6616 31.9918C28.279 32.5198 27.9358 33.0753 27.6349 33.6538C27.3905 34.119 27.1828 34.6027 27.0137 35.1003H27.0342ZM63.0884 57.0285C62.8313 57.8633 62.4029 58.6355 61.8307 59.2957C61.2283 60.0048 60.4966 60.5932 59.6745 61.0295C58.6459 61.6007 57.4751 61.8656 56.3006 61.7929C55.1261 61.7202 53.997 61.3128 53.0468 60.6191C51.8097 59.7446 50.9539 58.4308 50.6545 56.9465C50.6265 56.7756 50.5655 56.6118 50.4748 56.4643C50.4748 56.3874 50.5005 56.3155 50.5159 56.2488C50.6992 55.517 51.1066 54.8607 51.6813 54.3715C52.1336 53.9738 52.6823 53.7015 53.2727 53.5816C53.8223 53.4691 54.3938 53.545 54.895 53.797C55.3978 54.0762 55.8014 54.5046 56.0501 55.0229C56.0733 55.0671 56.1051 55.1062 56.1434 55.138C56.1818 55.1699 56.2261 55.1939 56.2738 55.2087C56.3215 55.2235 56.3716 55.2287 56.4213 55.2241C56.471 55.2195 56.5193 55.2052 56.5634 55.1819C56.6082 55.1593 56.6479 55.1278 56.68 55.0894C56.7122 55.051 56.7363 55.0065 56.7507 54.9585C56.7651 54.9105 56.7696 54.8601 56.7639 54.8103C56.7581 54.7606 56.7424 54.7125 56.7175 54.669C56.4003 54.0141 55.8848 53.4757 55.2441 53.1302C54.5988 52.7996 53.8601 52.6983 53.1495 52.8429C52.4306 52.9867 51.7616 53.3155 51.209 53.797C50.5148 54.3867 50.0244 55.18 49.8075 56.0642C49.676 56.0961 49.5521 56.1536 49.443 56.2335C48.8843 56.6636 48.3529 57.1279 47.8515 57.6235C45.5824 59.7625 41.6551 63.4557 35.7308 64.2918L35.4895 64.3277C34.2638 64.4836 33.0259 64.5197 31.7932 64.4354C27.5014 64.1174 24.2107 61.9784 20.9867 59.8753C18.0451 57.9621 15.1496 56.0796 11.5201 55.4897C9.24072 55.1204 7.11022 55.9462 5.32368 57.1055C5.06186 57.4235 4.81031 57.7466 4.55876 58.0749C4.184 58.5878 3.80411 59.0495 3.40881 59.5163C3.35112 59.5866 3.2695 59.6332 3.1796 59.6471C3.0897 59.661 2.99782 59.6413 2.92154 59.5918C2.84526 59.5422 2.78995 59.4663 2.76618 59.3786C2.74242 59.2908 2.75189 59.1974 2.79276 59.1162L2.51041 59.3829C3.53109 56.8346 5.32678 54.6709 7.64414 53.1969C10.3804 51.5503 13.9638 51.0733 18.425 52.2633C18.8203 52.371 19.2104 52.4839 19.5903 52.607C27.2242 55.0588 32.5889 53.4738 35.4022 51.2169L35.5203 51.104L35.7616 50.904C36.3461 50.4051 36.8515 49.8205 37.2606 49.1702C37.6601 48.5584 37.8839 47.8487 37.9075 47.1185C37.929 46.679 37.8041 46.2448 37.5523 45.8838C37.3006 45.5228 36.9363 45.2553 36.5162 45.1231C36.352 45.0667 36.1979 45.0206 36.0439 44.9795C36.3299 44.8942 36.611 44.7931 36.8859 44.6769C38.3387 44.0511 39.3963 43.0662 39.7659 42.2712C40.2138 41.3239 40.2996 40.2458 40.0072 39.2397C39.7616 38.3904 39.2937 37.6219 38.6519 37.0135C38.0295 36.4046 37.2457 35.9863 36.393 35.8081C36.1853 35.7651 35.9738 35.7428 35.7616 35.7414C35.6812 35.7362 35.6006 35.7362 35.5203 35.7414C34.8589 35.7611 34.2115 35.9369 33.6311 36.2544C33.5859 36.2766 33.5458 36.3079 33.5132 36.3462C33.4805 36.3845 33.4561 36.4291 33.4413 36.4772C33.4265 36.5252 33.4217 36.5759 33.4272 36.6259C33.4327 36.6759 33.4484 36.7242 33.4732 36.768C33.4981 36.8117 33.5317 36.8499 33.5719 36.8802C33.612 36.9106 33.658 36.9324 33.7069 36.9443C33.7558 36.9563 33.8066 36.9581 33.8563 36.9497C33.9059 36.9413 33.9533 36.9229 33.9956 36.8955C34.4686 36.6353 34.9961 36.4895 35.5357 36.4698H35.6589C35.6981 36.4645 35.7378 36.4645 35.777 36.4698C35.9496 36.4713 36.1216 36.4902 36.2903 36.5262C37.0058 36.6835 37.6623 37.0391 38.1847 37.5521C38.7312 38.0693 39.1299 38.7226 39.3398 39.4449C39.5806 40.2809 39.5095 41.1759 39.1396 41.9634C38.5579 42.9082 37.6757 43.6307 36.6343 44.0152C36.3648 44.1333 36.0868 44.231 35.8026 44.3076C35.7239 44.3369 35.6433 44.3609 35.5614 44.3794C34.868 44.5488 34.1543 44.6196 33.4411 44.5897C32.6328 44.5198 31.8588 44.2307 31.2028 43.7536C29.9418 42.8173 28.9488 41.5668 28.3228 40.1271C27.7878 38.8392 27.6763 37.4148 28.0045 36.0595C28.033 35.939 28.0306 35.8132 27.9974 35.6939C27.9642 35.5746 27.9013 35.4657 27.8146 35.3772C27.9735 34.8782 28.1762 34.3941 28.4203 33.9307C28.7069 33.3933 29.0348 32.8788 29.4009 32.3919C29.8086 31.8304 30.2904 31.3266 30.8332 30.8941C32.1866 29.849 33.8749 29.3329 35.5819 29.4425H35.8232H35.8489C37.5097 29.6032 39.0967 30.2074 40.4435 31.1916C40.9714 31.5735 41.4461 32.0237 41.8553 32.5304C43.1509 34.1392 43.9532 36.088 44.1655 38.142C44.2374 38.6549 44.2836 38.9986 44.5043 39.1679C44.0652 39.9721 43.7966 40.8581 43.7153 41.7707C43.6341 42.6832 43.7419 43.6027 44.032 44.4717C44.3746 45.4985 44.937 46.4385 45.68 47.2262C46.3956 47.9967 47.2719 48.6008 48.2468 48.9959C49.278 49.4144 50.4081 49.5266 51.5016 49.319C48.1441 52.5351 43.0925 56.2899 36.9115 57.8031C36.5419 57.8903 36.1774 57.9723 35.8026 58.0441L35.5614 58.0903C30.4198 59.0238 25.1137 58.251 20.4528 55.8898C9.50769 50.5501 6.80734 54.0483 4.02486 57.6235C3.66037 58.1006 3.29073 58.5827 2.89544 59.0392C2.87483 59.0624 2.85756 59.0883 2.84411 59.1162C3.62758 58.3736 4.47444 57.7008 5.37504 57.1055C7.75709 54.1817 10.7193 51.976 20.1088 56.5515C24.8668 58.9708 30.2824 59.7809 35.5408 58.8597L35.7821 58.8135C36.2133 58.7315 36.6394 58.6392 37.0655 58.5366C44.186 56.7977 49.8229 52.1761 53.1855 48.6829C53.744 48.3497 54.2507 47.9367 54.6896 47.457C55.0173 47.103 55.2953 46.7061 55.5162 46.2772C56.0327 45.2598 56.2004 44.101 55.9936 42.979C55.771 41.7946 55.1692 40.7145 54.279 39.9014C53.8361 39.4926 53.3385 39.1473 52.8004 38.8755C52.7569 38.8489 52.7084 38.8317 52.6579 38.8248C52.6074 38.8179 52.556 38.8215 52.5069 38.8354C52.4579 38.8493 52.4123 38.8732 52.3729 38.9056C52.3335 38.9379 52.3013 38.9781 52.2782 39.0235C52.2551 39.0689 52.2417 39.1186 52.2388 39.1694C52.2358 39.2203 52.2435 39.2712 52.2612 39.319C52.2789 39.3667 52.3063 39.4103 52.3416 39.447C52.377 39.4837 52.4196 39.5126 52.4667 39.5321C52.9415 39.7732 53.3818 40.0768 53.7758 40.4349C54.5494 41.1363 55.0722 42.0712 55.2646 43.097C55.4444 44.0619 55.3 45.0591 54.8539 45.9336C54.6679 46.3063 54.4312 46.6515 54.1506 46.9595C53.8426 47.2972 53.4983 47.5999 53.1239 47.8622C53.0044 47.9477 52.8792 48.0248 52.7491 48.0931C52.1074 48.4508 51.3928 48.6583 50.6591 48.7001C49.9255 48.7419 49.192 48.6167 48.5138 48.3341C47.6357 47.9808 46.8468 47.4378 46.2036 46.744C45.5339 46.0364 45.0275 45.1907 44.7199 44.2665C44.0063 42.0865 44.4684 39.4398 47.0763 37.1674C47.1209 37.1282 47.1554 37.0788 47.1769 37.0235C47.1983 36.9681 47.2061 36.9084 47.1995 36.8494C47.4683 36.604 47.7511 36.3745 48.0466 36.162L48.1133 36.1159C48.2006 36.0543 48.2828 35.9928 48.37 35.9415C48.4573 35.8902 48.5446 35.8235 48.6319 35.7722L48.7602 35.6953C48.88 35.6234 48.9981 35.5568 49.1144 35.4952C49.2308 35.4337 49.3437 35.3772 49.4532 35.3259C49.5649 35.2666 49.6797 35.2136 49.7972 35.1669H49.8588L49.9307 35.1413C49.9905 35.1129 50.0522 35.0889 50.1155 35.0695C50.2182 35.0284 50.326 34.9925 50.4287 34.9617C50.5004 34.9325 50.5742 34.9085 50.6494 34.89L50.8855 34.8284C51.0352 34.7822 51.1879 34.7463 51.3424 34.7207C51.4643 34.6927 51.5877 34.6721 51.7121 34.6591C51.8338 34.6337 51.9574 34.6182 52.0817 34.6129C52.5188 34.572 52.9588 34.572 53.3959 34.6129H53.6783L53.9658 34.654C54.0736 34.654 54.1814 34.6848 54.2892 34.7104L54.4791 34.7463H54.5305C54.6122 34.7614 54.6928 34.7819 54.7718 34.8079L55.0695 34.89C55.2852 34.9566 55.5008 35.0336 55.7113 35.1157L55.9833 35.2336L56.2503 35.3619C56.4402 35.4542 56.6251 35.5568 56.8047 35.6645L57.0717 35.8338L57.3335 36.0133L57.5697 36.1877C57.6929 36.28 57.8161 36.3775 57.9342 36.4852L58.0625 36.598L58.2781 36.8084C58.3572 36.8797 58.4326 36.955 58.504 37.0341C58.5759 37.111 58.6477 37.1931 58.7145 37.2751C58.7798 37.3422 58.8399 37.4142 58.8942 37.4905L58.9352 37.5419C58.9979 37.6153 59.0561 37.6924 59.1098 37.7727C59.2012 37.8905 59.2852 38.0138 59.3613 38.142C59.4435 38.2651 59.5153 38.3933 59.5872 38.5216C59.6334 38.5985 59.6745 38.6755 59.7156 38.7524L59.7618 38.8499L59.8388 39.0037C59.8747 39.0858 59.9158 39.1679 59.9466 39.25L59.9774 39.3166C60.3661 40.2513 60.5651 41.2539 60.5626 42.266C60.5626 44.205 59.8593 46.3696 58.1754 48.5188C58.1543 48.5426 58.1354 48.5684 58.119 48.5958C58.0456 48.7048 58.0006 48.8303 57.9881 48.9611C57.9755 49.0919 57.9958 49.2237 58.0471 49.3447C58.135 49.531 58.2672 49.693 58.4321 49.8166L58.5605 49.9089C58.7658 50.0371 59.0122 50.1705 59.2792 50.3141C60.1741 50.7374 60.9712 51.3418 61.6202 52.0889C61.7511 52.2506 61.8695 52.4221 61.9744 52.6018C62.1008 52.7219 62.2208 52.8486 62.3338 52.9814C62.8011 53.5321 63.1164 54.1951 63.2488 54.9049C63.3811 55.6146 63.3259 56.3466 63.0884 57.0285ZM78.4126 48.2316C77.594 49.0208 76.5151 49.4842 75.3786 49.5344C74.212 49.5813 73.0658 49.2183 72.1392 48.5086C71.1347 47.6756 70.2608 46.697 69.5467 45.6053C69.1052 44.9692 68.8382 44.5794 68.217 45.0308C67.6434 45.5427 67.1654 46.1523 66.8052 46.8312C65.8658 48.3239 64.5361 50.4218 62.0514 51.3246C61.9972 51.344 61.9455 51.3698 61.8974 51.4016C61.225 50.721 60.4422 50.1591 59.5821 49.7396C59.3408 49.6114 59.12 49.4883 58.9147 49.3549L58.8326 49.3036C58.7685 49.258 58.7158 49.1983 58.6785 49.1292C58.6712 49.1177 58.6674 49.1044 58.6674 49.0908C58.6674 49.0771 58.6712 49.0638 58.6785 49.0523C61.3943 45.5591 61.728 42.0763 60.6653 39.3064C61.9135 37.3686 62.7488 35.1947 63.1192 32.9202C63.5556 32.8638 63.7917 32.4381 64.146 31.8277L64.1768 31.7764L64.2384 31.6635C64.5849 31.088 65.0505 30.593 65.604 30.2119C66.2361 29.7556 66.9268 29.3864 67.6575 29.1142C69.2455 28.4904 70.9684 28.2889 72.6577 28.5295C73.9485 28.7444 75.1666 29.2728 76.2051 30.0683C77.0016 30.6704 77.6322 31.4646 78.0378 32.3765C78.4433 33.3345 78.5593 34.3901 78.3716 35.4131C78.0737 36.8496 77.4286 38.1915 76.4926 39.3218C76.4457 39.3792 76.4044 39.4411 76.3694 39.5064C75.8863 39.7574 75.3665 39.9305 74.8293 40.0194C73.6472 40.1949 72.4417 40.1268 71.287 39.8193C69.444 39.3782 68.5764 38.2805 68.3864 37.0494C68.3043 36.4718 68.3517 35.8831 68.5251 35.3259C68.6992 34.7627 68.9836 34.2396 69.3618 33.7871C69.7576 33.2732 70.3058 32.8972 70.928 32.713C71.5503 32.5288 72.215 32.5457 72.8271 32.7612C72.8725 32.7791 72.9211 32.7875 72.9698 32.7859C73.0186 32.7844 73.0665 32.7729 73.1107 32.7523C73.1549 32.7317 73.1944 32.7023 73.2269 32.6659C73.2593 32.6295 73.284 32.5869 73.2994 32.5407C73.3165 32.4953 73.3243 32.4469 73.3225 32.3984C73.3206 32.3499 73.309 32.3022 73.2885 32.2583C73.2679 32.2143 73.2387 32.1749 73.2027 32.1424C73.1667 32.1098 73.1245 32.0848 73.0787 32.0688C72.3279 31.7932 71.5089 31.7634 70.7401 31.9838C69.9713 32.2042 69.2926 32.6633 68.8023 33.2947C68.3556 33.8215 68.0219 34.4343 67.8217 35.0951C67.6099 35.7573 67.5537 36.4594 67.6575 37.1469C67.8885 38.6447 68.9255 40.004 71.1176 40.5272C72.3698 40.8586 73.6767 40.9302 74.9576 40.7375C75.4607 40.6491 75.9506 40.4975 76.4156 40.2861C76.6658 40.6484 76.9666 40.9732 77.3089 41.2504C77.6979 41.591 78.0648 41.9559 78.4075 42.343C79.1399 43.2258 79.5331 44.3407 79.5164 45.4873C79.5256 45.9979 79.4307 46.5049 79.2374 46.9776C79.0441 47.4503 78.7565 47.8787 78.3921 48.2367L78.4126 48.2316Z" fill="#FBFBF2"/>
</svg>
