<svg width="33" height="36" viewBox="0 0 33 36" fill="none" xmlns="http://www.w3.org/2000/svg">
<path d="M31.9471 10.7592C31.5899 10.0535 31.409 9.2819 30.973 8.61854C30.1381 7.00012 28.9785 5.50872 27.6241 4.23374C26.9052 3.76797 26.3068 3.18459 25.5925 2.71882C24.9571 2.2954 24.2567 1.95195 23.598 1.58498C22.5822 1.18038 21.6035 0.756953 20.5506 0.493489C20.1332 0.451147 19.7714 0.248844 19.3539 0.248844L17.6192 0.0465409C16.724 -0.0522582 15.787 0.0277218 14.8686 0.0888831C12.8184 0.248844 11.0048 0.935733 9.19124 1.74494C6.06498 3.32103 3.25413 6.04976 1.71883 9.2819C0.563871 11.7284 -0.076225 14.5135 0.00726574 17.1811C0.00726574 17.5246 0.104672 18.028 0.0675647 18.3526C0.225269 18.9783 0.206716 19.5664 0.364421 20.1498C1.31993 24.6569 4.16789 28.8582 8.3517 31.2247C9.10775 31.7893 9.98441 32.0339 10.824 32.3774C13.774 33.5112 17.4986 33.7088 20.6063 32.862C25.0498 31.8316 29.1548 28.576 31.205 24.3135C31.2467 24.2711 31.3024 24.2711 31.2653 24.1912C33.2598 20.1169 33.5984 15.144 31.9471 10.7592ZM12.939 7.50822C13.4585 7.06128 14.094 6.69901 14.8732 6.8825C15.4299 7.02364 15.9076 7.42824 16.2091 7.95517C16.4874 8.4821 16.5894 9.34777 16.2091 9.8747C15.8705 10.4628 15.2119 10.9474 14.5346 10.9662C13.7554 10.9239 12.9205 10.5804 12.6236 9.7759C12.2015 9.02314 12.4427 8.15277 12.939 7.50822ZM30.8478 23.3114C29.5305 26.4024 26.8031 29.3758 23.7928 30.8295C22.8559 31.3329 21.9004 31.7987 20.866 31.9634C20.4068 31.9634 20.0079 32.0857 19.5487 32.0857L18.352 31.9634C18.0923 31.9022 17.8557 31.7187 17.5728 31.7799C16.2184 31.5587 14.9614 30.8107 13.927 29.818C12.0346 27.8373 11.2785 24.9063 12.0346 22.3422C12.4149 21.0672 13.171 19.8581 14.1682 18.9454C15.3835 18.075 16.6173 17.2658 17.7954 16.2778C19.2101 15.2475 20.7825 14.1372 21.4597 12.4764C22.0163 11.6484 22.1184 10.6369 22.2946 9.64887C22.5915 6.69901 21.1582 3.64565 18.5283 2.11191C18.0088 1.74965 17.3919 1.58498 16.8538 1.28388C16.2369 1.18508 15.6989 0.921619 15.1005 0.921619C15.0402 0.879276 15.1191 0.879276 15.082 0.860457C16.5152 0.615812 18.3706 0.780477 19.8827 1.1051C23.9459 1.97548 27.8097 4.72303 29.9619 8.40212L30.5788 9.51243C32.7217 13.5914 32.8237 19.2089 30.8478 23.3114ZM20.9263 23.9747C21.1861 24.7651 21.0052 25.692 20.3883 26.2801C19.8085 26.7035 19.071 27.0704 18.3381 26.807C17.7815 26.6047 17.2017 26.1813 16.9234 25.6543C16.6637 25.0898 16.7425 24.3605 17.0023 23.8148C17.3826 23.0667 18.199 22.7844 18.8947 22.521C19.7946 22.5022 20.5877 23.1702 20.9263 23.9747ZM22.9765 35.5578L22.9579 35.5766L22.8976 35.4966C22.9162 35.5154 22.9347 35.5342 22.9765 35.5578ZM20.3651 35.9812C20.3651 36 20.3465 36 20.3048 36C20.328 35.9577 20.3465 35.9812 20.3651 35.9812Z" fill="white"/>
</svg>
