<svg width="34" height="36" viewBox="0 0 34 36" fill="none" xmlns="http://www.w3.org/2000/svg">
<ellipse cx="17" cy="16.3808" rx="13.4504" ry="10.4492" transform="rotate(34.3118 17 16.3808)" fill="white" fill-opacity="0.7"/>
<path fill-rule="evenodd" clip-rule="evenodd" d="M9.55999 23.8223L1.32458 33.2224C0.978978 33.6168 0.90244 34.1685 1.12838 34.6365C1.35433 35.1044 1.84173 35.4038 2.3778 35.4038H30.6222C31.3832 35.4038 32 34.8099 32 34.0774C32 33.3449 31.3832 32.7511 30.6222 32.7511H5.34213L11.7546 25.4318C11.5381 25.2975 11.3231 25.1576 11.1098 25.0121C10.5626 24.6386 10.0455 24.2407 9.55999 23.8223Z" fill="white"/>
<path fill-rule="evenodd" clip-rule="evenodd" d="M28.5068 2.73609C29.0941 3.23776 29.1673 4.12507 28.6704 4.71795L18.4562 16.9054C17.9593 17.4983 17.0804 17.5722 16.4932 17.0706C15.906 16.5689 15.8327 15.6816 16.3296 15.0887L26.5438 2.90124C27.0407 2.30836 27.9196 2.23442 28.5068 2.73609Z" fill="white"/>
</svg>
